<?xml version="1.0" standalone="no"?>
<!DOCTYPE svg PUBLIC "-//W3C//DTD SVG 20010904//EN"
 "http://www.w3.org/TR/2001/REC-SVG-20010904/DTD/svg10.dtd">
<svg version="1.0" xmlns="http://www.w3.org/2000/svg"
 width="540.000000pt" height="200.000000pt" viewBox="0 0 540.000000 200.000000"
 preserveAspectRatio="xMidYMid meet">

<g transform="translate(0.000000,200.000000) scale(0.100000,-0.100000)"
fill="#000000" stroke="none">
<path d="M135 1394 c-73 -27 -115 -83 -115 -156 0 -24 12 -154 26 -288 18
-175 30 -254 42 -275 10 -17 39 -41 67 -55 49 -24 57 -25 290 -28 l240 -3 55
28 c84 43 86 50 118 359 31 296 30 322 -19 372 -55 56 -93 62 -393 61 -210 0
-280 -4 -311 -15z m412 -255 c67 -25 96 -87 74 -159 -14 -48 -53 -77 -122 -90
-28 -6 -53 -10 -55 -10 -2 0 -4 -11 -4 -25 0 -20 6 -25 35 -31 32 -6 35 -9 35
-40 l0 -34 -104 0 -103 0 -7 31 c-7 36 -1 49 23 49 15 0 17 9 14 68 -7 127
-12 150 -36 154 -19 3 -22 10 -25 51 l-3 47 125 0 c68 0 137 -5 153 -11z"/>
<path d="M440 1017 c0 -42 5 -47 38 -38 18 5 28 15 30 31 4 26 -12 40 -45 40
-19 0 -23 -5 -23 -33z"/>
<path d="M1935 1394 c-73 -27 -115 -83 -115 -156 0 -24 12 -154 26 -288 18
-175 30 -254 42 -275 10 -17 39 -41 67 -55 49 -24 57 -25 290 -28 l240 -3 55
28 c84 43 86 50 118 359 31 296 30 322 -19 372 -55 56 -93 62 -393 61 -210 0
-280 -4 -311 -15z m301 -344 c42 -55 79 -100 80 -100 2 0 4 25 4 55 0 51 -2
55 -24 55 -24 0 -36 21 -36 68 0 21 3 22 111 22 l110 0 -3 -42 c-2 -36 -7 -44
-25 -46 -22 -3 -23 -7 -23 -125 0 -67 -3 -139 -6 -159 -7 -38 -7 -38 -53 -38
l-46 1 -64 95 c-35 52 -66 92 -69 90 -2 -3 -1 -28 3 -55 5 -40 11 -51 25 -51
12 0 21 -10 25 -31 4 -17 5 -32 3 -34 -1 -2 -46 -5 -98 -6 l-95 -4 -3 32 c-2
24 1 33 18 38 19 6 20 11 14 103 -7 117 -8 122 -32 122 -15 0 -21 9 -26 38
-12 74 -13 72 63 72 l70 0 77 -100z"/>
<path d="M3735 1394 c-73 -27 -115 -83 -115 -156 0 -24 12 -154 26 -288 18
-175 30 -254 42 -275 10 -17 39 -41 67 -55 49 -24 57 -25 290 -28 l240 -3 55
28 c84 43 86 50 118 359 31 296 30 322 -19 372 -55 56 -93 62 -393 61 -210 0
-280 -4 -311 -15z m421 -405 c41 -113 64 -163 77 -167 12 -3 17 -14 17 -38 0
-41 -15 -46 -110 -42 l-65 3 -3 38 c-2 27 1 37 11 37 10 0 13 7 10 20 -5 18
-12 21 -51 18 -51 -3 -64 -18 -30 -33 16 -7 24 -20 26 -41 l3 -31 -87 -7 c-95
-8 -104 -4 -104 47 0 17 5 27 14 27 21 0 23 5 50 131 13 63 29 133 35 157 l12
42 68 0 68 0 59 -161z"/>
<path d="M4021 970 c-6 -18 -11 -35 -11 -36 0 -7 25 -4 38 5 12 7 12 13 -1 36
l-14 28 -12 -33z"/>
<path d="M3168 1193 c-22 -6 -24 -58 -3 -70 12 -7 6 -16 -28 -42 -41 -31 -42
-32 -45 -10 -2 13 3 26 12 31 10 6 16 23 16 48 l0 40 -84 0 -84 0 -5 -32 c-6
-40 -2 -48 24 -48 18 0 19 -8 19 -106 0 -113 -9 -144 -41 -144 -18 0 -20 -5
-17 -42 l3 -43 96 -3 96 -3 7 32 c9 46 8 49 -19 59 -20 8 -25 16 -25 43 0 30
24 67 43 67 3 0 19 -25 35 -55 28 -51 29 -55 10 -55 -16 0 -19 -6 -16 -42 l3
-43 95 -3 c52 -1 100 1 107 6 8 5 10 21 6 45 -4 28 -10 37 -25 37 -12 0 -37
28 -75 87 l-57 87 40 34 c21 19 49 38 62 43 17 6 22 17 22 42 0 33 -2 34 -46
41 -51 7 -99 6 -126 -1z"/>
<path d="M4952 1193 l-73 -4 3 -47 c3 -46 3 -47 41 -50 l37 -3 0 -98 c0 -98
-7 -121 -39 -121 -8 0 -27 12 -43 27 l-27 26 -46 -37 c-51 -42 -50 -56 8 -100
102 -78 245 -42 276 70 7 24 8 77 4 137 -6 95 -5 98 15 104 19 5 21 10 16 47
-4 22 -8 42 -9 43 -4 6 -96 10 -163 6z"/>
<path d="M1227 1063 c-20 -71 -40 -142 -43 -160 -4 -22 -13 -33 -31 -38 -22
-5 -24 -10 -21 -53 2 -37 7 -47 21 -46 9 0 55 1 102 2 l85 2 0 34 c0 48 -9 66
-32 66 -13 0 -18 6 -16 18 2 13 15 18 51 20 26 2 47 -1 47 -7 0 -5 3 -16 6
-25 4 -11 1 -16 -10 -16 -12 0 -16 -10 -16 -37 0 -64 5 -66 115 -58 l97 7 -6
30 c-3 17 -6 39 -6 49 0 10 -9 19 -21 21 -17 2 -34 34 -88 161 l-66 157 -65 0
-65 0 -38 -127z m127 -50 c6 -20 4 -23 -17 -23 -24 0 -25 1 -14 35 11 36 17
34 31 -12z"/>
</g>
</svg>
